<?xml version="1.0" encoding="UTF-8" standalone="no"?>
<!-- Created with Inkscape (http://www.inkscape.org/) -->

<svg
   xmlns:dc="http://purl.org/dc/elements/1.1/"
   xmlns:cc="http://creativecommons.org/ns#"
   xmlns:rdf="http://www.w3.org/1999/02/22-rdf-syntax-ns#"
   xmlns:svg="http://www.w3.org/2000/svg"
   xmlns="http://www.w3.org/2000/svg"
   xmlns:sodipodi="http://sodipodi.sourceforge.net/DTD/sodipodi-0.dtd"
   xmlns:inkscape="http://www.inkscape.org/namespaces/inkscape"
   width="350"
   height="70"
   viewBox="0 0 92.604169 18.520833"
   version="1.1"
   id="svg8"
   inkscape:version="0.92.5 (2060ec1f9f, 2020-04-08)"
   sodipodi:docname="metamaxie-lg-01.svg">
  <defs
     id="defs2" />
  <sodipodi:namedview
     id="base"
     pagecolor="#ffffff"
     bordercolor="#666666"
     borderopacity="1.0"
     inkscape:pageopacity="0.0"
     inkscape:pageshadow="2"
     inkscape:zoom="1.979899"
     inkscape:cx="73.632917"
     inkscape:cy="58.607177"
     inkscape:document-units="mm"
     inkscape:current-layer="layer1"
     showgrid="false"
     showguides="true"
     inkscape:guide-bbox="true"
     inkscape:window-width="1920"
     inkscape:window-height="962"
     inkscape:window-x="0"
     inkscape:window-y="27"
     inkscape:window-maximized="1"
     units="px">
    <sodipodi:guide
       position="373.91008,119.60311"
       orientation="0,1"
       id="guide870"
       inkscape:locked="false" />
  </sodipodi:namedview>
  <metadata
     id="metadata5">
    <rdf:RDF>
      <cc:Work
         rdf:about="">
        <dc:format>image/svg+xml</dc:format>
        <dc:type
           rdf:resource="http://purl.org/dc/dcmitype/StillImage" />
        <dc:title />
      </cc:Work>
    </rdf:RDF>
  </metadata>
  <g
     inkscape:label="Layer 1"
     inkscape:groupmode="layer"
     id="layer1"
     transform="translate(0,-278.47918)">
    <path
       inkscape:connector-curvature="0"
       style="fill:#00acff;fill-opacity:1;stroke:none;stroke-width:0.20601094px;stroke-linecap:butt;stroke-linejoin:miter;stroke-opacity:1"
       d="m 93.178393,117.28313 -1.750705,3.2338 -5.914366,-3.15735 -1.951869,4.00353 4.712909,2.30596 -2.187257,4.459 -4.980895,-9.3566 -2.2291,5.18609 -1.155984,-5.22633 -5.413026,4.37613 -4.583331,-4.53908 c 0,0 -1.410244,5.44225 -1.526166,5.64398 -0.115945,0.20172 -3.93916,-5.75262 -3.93916,-5.75262 l -3.87195,10.14604 -1.073917,-5.74296 2.257652,-0.28567 -1.026819,-3.86392 -7.673106,1.11818 -7.382197,-1.20992 -0.385466,3.05234 -1.454151,-3.68043 -3.703766,6.35133 -6.708641,-3.8285 3.935937,12.99599 3.552083,-1.04454 -1.862952,-2.92197 3.150913,1.38131 0.645409,-3.03745 1.832757,3.44183 2.094724,-1.07713 c 0,0 6.68128,3.41016 6.931935,3.58105 0.250693,0.17088 0.222966,-3.84332 0.298968,-4.25581 0.07607,-0.4125 -5.203778,-1.03167 -5.203778,-1.03167 l 0.0756,-1.29843 2.401721,0.8168 0.340406,-2.27296 -2.759412,-0.94194 0.04469,-1.66499 4.482344,0.88521 3.060374,-0.65626 1.1898,9.13691 5.950977,-0.17583 0.672357,-3.50461 1.772024,-0.002 1.261402,3.40843 3.763737,-0.19877 c 0,0 0.363672,-3.57446 0.479617,-3.77619 0.115945,-0.20173 2.440348,2.85156 2.440348,2.85156 l 2.072175,-2.48541 1.007929,3.28933 5.328514,0.67397 0.467548,-3.56858 1.44529,0.24022 1.389377,2.99882 5.342994,-0.47157 1.918888,-3.43258 3.568582,4.06349 7.30735,-0.20118 0.1891,-4.15845 c 0,0 1.37815,4.09278 1.57687,4.26065 0.19872,0.16786 7.20839,-2.08305 7.20839,-2.08305 l -1.09687,-3.5553 c 0,0 -3.60109,0.98975 -4.08963,1.3262 -0.48855,0.33645 -0.56653,-1.90922 -0.56653,-1.90922 l 2.4653,-0.27361 -1.13589,-2.88013 -1.9728,0.77134 -0.35528,-1.06266 3.76895,-1.18858 -1.08075,-2.92882 -4.99376,1.63844 -0.12432,-2.35223 -3.280893,-0.0342 -0.159322,10.83047 -3.579856,-2.96986 3.16703,-5.18366 z m -30.407153,7.17296 c 0,0 0.939488,1.7746 0.834117,1.79455 -0.105395,0.0199 -1.480312,-0.0861 -1.480312,-0.0861 z m 18.438799,0.15813 c 0,0 1.449993,2.40294 1.34913,2.34498 -0.100886,-0.0579 -2.009021,-0.40317 -2.009021,-0.40317 z"
       id="path826-0-7-1"
       inkscape:export-filename="/home/rgraner/projects/graphic_design/metamaxie/metamaxie-lg-600-01.png"
       inkscape:export-xdpi="150.10001"
       inkscape:export-ydpi="150.10001" />
    <path
       inkscape:export-ydpi="150.10001"
       inkscape:export-xdpi="150.10001"
       inkscape:export-filename="/home/rgraner/projects/graphic_design/metamaxie/metamaxie-lg-600-01.png"
       inkscape:connector-curvature="0"
       style="fill:#00acff;fill-opacity:1;stroke:none;stroke-width:0.20264789px;stroke-linecap:butt;stroke-linejoin:miter;stroke-opacity:1"
       d="m 69.829989,280.4389 -1.808155,3.13291 -5.731038,-3.26317 -2.026599,3.88439 4.57245,2.39378 -2.270267,4.32597 -4.646981,-9.33394 -2.586787,5.19332 -0.74073,-5.32361 -4.928209,5.18153 -4.896936,-5.60969 c 0,0 -1.532577,5.31362 -1.651967,5.50887 -0.119414,0.19525 -3.719238,-5.76219 -3.719238,-5.76219 l -4.079262,9.87293 -0.902069,-5.67589 2.227628,-0.2204 -0.906122,-3.82695 -7.575013,0.89386 -7.226561,-1.38758 -0.460842,2.99106 -1.331234,-3.65798 -3.863359,6.45311 -8.0293528,-3.94441 3.2148678,13.08929 4.28844,-0.98307 -0.627666,-3.38373 3.061302,1.44272 0.716045,-2.96946 1.709925,3.4335 1.781583,-0.18418 6.464369,2.27413 c 0,0 0.885197,-3.15908 0.97098,-3.56265 0.08587,-0.40357 -5.089272,-1.15393 -5.089272,-1.15393 l 0.109142,-1.27472 2.646798,0.56048 0.395648,-2.2259 -2.995166,-0.69312 0.08857,-1.636 4.383813,0.99056 3.026883,-0.56327 0.925054,9.01629 5.856371,-0.0134 0.755063,-3.42809 1.742498,0.046 1.148992,3.38536 3.706255,-0.0945 c 0,0 0.453396,-3.50506 0.572811,-3.70031 0.11942,-0.19526 2.323192,2.86938 2.323192,2.86938 l 2.104209,-2.3884 0.902942,3.26145 5.221515,0.80554 0.555401,-3.49649 1.414727,0.27494 1.285808,2.98601 5.266466,-0.32049 1.978859,-3.32386 3.400111,4.09131 7.190793,-0.002 0.297398,-4.08397 c 0,0 1.245458,4.0614 1.436354,4.2318 0.190905,0.17039 7.143919,-1.85508 7.143919,-1.85508 l -0.983272,-3.52535 c 0,0 -3.567515,0.87671 -4.05692,1.19444 -0.489411,0.31774 -0.505901,-1.89254 -0.505901,-1.89254 l 2.431483,-0.20297 -1.039741,-2.8625 -1.960539,0.70559 -0.32088,-1.05444 3.737902,-1.06773 -0.984214,-2.90891 -4.954319,1.47725 -0.0592,-2.31631 -3.225222,-0.12154 -0.446948,10.64544 -3.440506,-3.01625 3.253109,-5.01226 z m -30.091917,6.23826 c 0,0 0.876244,1.77017 0.772095,1.78696 -0.104174,0.0168 -1.453298,-0.12435 -1.453298,-0.12435 z m 18.126825,0.64969 c 0,0 1.36138,2.40171 1.263757,2.34201 -0.09765,-0.0597 -1.964682,-0.45028 -1.964682,-0.45028 z"
       id="path1594"
       sodipodi:nodetypes="ccccccccccccccccccccccccccccccccccccccccccccccccccccccccccccccccccccccccccccccccccccc" />
  </g>
</svg>
